<?xml version="1.0" encoding="UTF-8" standalone="no"?>
<!DOCTYPE svg PUBLIC "-//W3C//DTD SVG 1.1//EN"
 "http://www.w3.org/Graphics/SVG/1.1/DTD/svg11.dtd">
<!-- Generated by graphviz version 12.1.2 (0)
 -->
<!-- Pages: 1 -->
<svg width="422pt" height="372pt"
 viewBox="0.00 0.00 422.00 372.00" xmlns="http://www.w3.org/2000/svg" xmlns:xlink="http://www.w3.org/1999/xlink">
<g id="graph0" class="graph" transform="scale(1 1) rotate(0) translate(4 368)">
<polygon fill="white" stroke="none" points="-4,4 -4,-368 418,-368 418,4 -4,4"/>
<!-- 1 -->
<g id="node1" class="node">
<title>1</title>
<ellipse fill="none" stroke="black" cx="207" cy="-346" rx="27" ry="18"/>
</g>
<!-- 2 -->
<g id="node2" class="node">
<title>2</title>
<ellipse fill="tomato" stroke="black" cx="135" cy="-273" rx="27" ry="18"/>
<text text-anchor="middle" x="135" y="-268.32" font-family="Times,serif" font-size="14.00">3</text>
</g>
<!-- 1&#45;&#45;2 -->
<g id="edge1" class="edge">
<title>1&#45;&#45;2</title>
<path fill="none" stroke="black" d="M192.43,-330.63C180.02,-318.39 162.27,-300.89 149.8,-288.59"/>
</g>
<!-- 3 -->
<g id="node3" class="node">
<title>3</title>
<ellipse fill="mediumseagreen" stroke="black" cx="207" cy="-273" rx="27" ry="18"/>
<text text-anchor="middle" x="207" y="-268.32" font-family="Times,serif" font-size="14.00">3</text>
</g>
<!-- 1&#45;&#45;3 -->
<g id="edge2" class="edge">
<title>1&#45;&#45;3</title>
<path fill="none" stroke="black" d="M207,-327.81C207,-316.65 207,-302.16 207,-291.03"/>
</g>
<!-- 4 -->
<g id="node4" class="node">
<title>4</title>
<ellipse fill="skyblue" stroke="black" cx="279" cy="-273" rx="27" ry="18"/>
<text text-anchor="middle" x="279" y="-268.32" font-family="Times,serif" font-size="14.00">3</text>
</g>
<!-- 1&#45;&#45;4 -->
<g id="edge3" class="edge">
<title>1&#45;&#45;4</title>
<path fill="none" stroke="black" d="M221.57,-330.63C233.98,-318.39 251.73,-300.89 264.2,-288.59"/>
</g>
<!-- 5 -->
<g id="node5" class="node">
<title>5</title>
<ellipse fill="tomato" stroke="black" cx="135" cy="-145.5" rx="27" ry="18"/>
<text text-anchor="middle" x="135" y="-140.82" font-family="Times,serif" font-size="14.00">4</text>
</g>
<!-- 4&#45;&#45;5 -->
<g id="edge4" class="edge">
<title>4&#45;&#45;5</title>
<path fill="none" stroke="black" d="M263.04,-258.09C235.36,-233.97 178.76,-184.64 151.03,-160.47"/>
</g>
<!-- 6 -->
<g id="node6" class="node">
<title>6</title>
<ellipse fill="mediumseagreen" stroke="black" cx="279" cy="-145.5" rx="27" ry="18"/>
<text text-anchor="middle" x="279" y="-140.82" font-family="Times,serif" font-size="14.00">4</text>
</g>
<!-- 4&#45;&#45;6 -->
<g id="edge5" class="edge">
<title>4&#45;&#45;6</title>
<path fill="none" stroke="black" d="M279,-254.55C279,-230.57 279,-187.7 279,-163.8"/>
</g>
<!-- 7 -->
<g id="node7" class="node">
<title>7</title>
<ellipse fill="skyblue" stroke="black" cx="351" cy="-145.5" rx="27" ry="18"/>
<text text-anchor="middle" x="351" y="-140.82" font-family="Times,serif" font-size="14.00">4</text>
</g>
<!-- 4&#45;&#45;7 -->
<g id="edge6" class="edge">
<title>4&#45;&#45;7</title>
<path fill="none" stroke="red" stroke-dasharray="5,2" d="M288.27,-255.85C302.09,-231.75 327.97,-186.65 341.77,-162.59"/>
<text text-anchor="middle" x="335.35" y="-199" font-family="Times,serif" font-size="40.00" fill="red">˟</text>
</g>
<!-- 11 -->
<g id="node11" class="node">
<title>11</title>
<ellipse fill="tomato" stroke="black" cx="27" cy="-18" rx="27" ry="18"/>
<text text-anchor="middle" x="27" y="-13.32" font-family="Times,serif" font-size="14.00">6</text>
</g>
<!-- 5&#45;&#45;11 -->
<g id="edge10" class="edge">
<title>5&#45;&#45;11</title>
<path fill="none" stroke="red" stroke-dasharray="5,2" d="M118.22,-131.28C110.7,-125.02 101.94,-117.23 94.75,-109.5 72.17,-85.2 49.88,-53.55 37.33,-34.83"/>
<text text-anchor="middle" x="100.38" y="-71.5" font-family="Times,serif" font-size="40.00" fill="red">˟</text>
</g>
<!-- 12 -->
<g id="node12" class="node">
<title>12</title>
<ellipse fill="mediumseagreen" stroke="black" cx="99" cy="-18" rx="27" ry="18"/>
<text text-anchor="middle" x="99" y="-13.32" font-family="Times,serif" font-size="14.00">6</text>
</g>
<!-- 5&#45;&#45;12 -->
<g id="edge11" class="edge">
<title>5&#45;&#45;12</title>
<path fill="none" stroke="black" d="M130.07,-127.31C123.18,-103.28 110.73,-59.9 103.87,-35.98"/>
</g>
<!-- 13 -->
<g id="node13" class="node">
<title>13</title>
<ellipse fill="skyblue" stroke="black" cx="171" cy="-18" rx="27" ry="18"/>
<text text-anchor="middle" x="171" y="-13.32" font-family="Times,serif" font-size="14.00">6</text>
</g>
<!-- 5&#45;&#45;13 -->
<g id="edge12" class="edge">
<title>5&#45;&#45;13</title>
<path fill="none" stroke="red" stroke-dasharray="5,2" d="M139.93,-127.31C146.82,-103.28 159.27,-59.9 166.13,-35.98"/>
<text text-anchor="middle" x="165.99" y="-71.5" font-family="Times,serif" font-size="40.00" fill="red">˟</text>
</g>
<!-- 8 -->
<g id="node8" class="node">
<title>8</title>
<ellipse fill="tomato" stroke="black" cx="243" cy="-18" rx="27" ry="18"/>
<text text-anchor="middle" x="243" y="-13.32" font-family="Times,serif" font-size="14.00">6</text>
</g>
<!-- 6&#45;&#45;8 -->
<g id="edge7" class="edge">
<title>6&#45;&#45;8</title>
<path fill="none" stroke="black" d="M274.07,-127.31C267.18,-103.28 254.73,-59.9 247.87,-35.98"/>
</g>
<!-- 9 -->
<g id="node9" class="node">
<title>9</title>
<ellipse fill="mediumseagreen" stroke="black" cx="315" cy="-18" rx="27" ry="18"/>
<text text-anchor="middle" x="315" y="-13.32" font-family="Times,serif" font-size="14.00">6</text>
</g>
<!-- 6&#45;&#45;9 -->
<g id="edge8" class="edge">
<title>6&#45;&#45;9</title>
<path fill="none" stroke="red" stroke-dasharray="5,2" d="M283.93,-127.31C290.82,-103.28 303.27,-59.9 310.13,-35.98"/>
<text text-anchor="middle" x="309.99" y="-71.5" font-family="Times,serif" font-size="40.00" fill="red">˟</text>
</g>
<!-- 10 -->
<g id="node10" class="node">
<title>10</title>
<ellipse fill="skyblue" stroke="black" cx="387" cy="-18" rx="27" ry="18"/>
<text text-anchor="middle" x="387" y="-13.32" font-family="Times,serif" font-size="14.00">6</text>
</g>
<!-- 6&#45;&#45;10 -->
<g id="edge9" class="edge">
<title>6&#45;&#45;10</title>
<path fill="none" stroke="red" stroke-dasharray="5,2" d="M296.13,-131.34C303.8,-125.1 312.72,-117.3 320,-109.5 342.54,-85.34 364.52,-53.64 376.85,-34.88"/>
<text text-anchor="middle" x="368.85" y="-71.5" font-family="Times,serif" font-size="40.00" fill="red">˟</text>
</g>
</g>
</svg>
