<?xml version="1.0" encoding="UTF-8" standalone="no"?>
<!DOCTYPE svg PUBLIC "-//W3C//DTD SVG 1.1//EN"
 "http://www.w3.org/Graphics/SVG/1.1/DTD/svg11.dtd">
<!-- Generated by graphviz version 12.1.2 (0)
 -->
<!-- Pages: 1 -->
<svg width="682pt" height="682pt"
 viewBox="0.00 0.00 682.23 682.23" xmlns="http://www.w3.org/2000/svg" xmlns:xlink="http://www.w3.org/1999/xlink">
<g id="graph0" class="graph" transform="scale(1 1) rotate(0) translate(4 678.23)">
<polygon fill="white" stroke="none" points="-4,4 -4,-678.23 678.23,-678.23 678.23,4 -4,4"/>
<!-- 1 -->
<g id="node1" class="node">
<title>1</title>
<ellipse fill="lightgrey" stroke="black" stroke-width="2" cx="235.25" cy="-337.19" rx="27" ry="27.93"/>
<text text-anchor="middle" x="235.25" y="-328.24" font-family="Times,serif" font-size="26.00">1</text>
</g>
<!-- 2 -->
<g id="node2" class="node">
<title>2</title>
<ellipse fill="none" stroke="black" cx="428.18" cy="-172.24" rx="27" ry="27.93"/>
<text text-anchor="middle" x="428.18" y="-163.29" font-family="Times,serif" font-size="26.00">2</text>
</g>
<!-- 1&#45;&#45;2 -->
<g id="edge1" class="edge">
<title>1&#45;&#45;2</title>
<path fill="none" stroke="black" d="M256.26,-319.23C293.38,-287.49 370.1,-221.9 407.19,-190.18"/>
</g>
<!-- 3 -->
<g id="node3" class="node">
<title>3</title>
<ellipse fill="none" stroke="black" cx="428.06" cy="-501.91" rx="27" ry="27.93"/>
<text text-anchor="middle" x="428.06" y="-492.96" font-family="Times,serif" font-size="26.00">3</text>
</g>
<!-- 1&#45;&#45;3 -->
<g id="edge2" class="edge">
<title>1&#45;&#45;3</title>
<path fill="none" stroke="black" d="M256.25,-355.13C293.34,-386.82 370.01,-452.32 407.08,-483.99"/>
</g>
<!-- 4 -->
<g id="node4" class="node">
<title>4</title>
<ellipse fill="none" stroke="black" cx="176.02" cy="-630.46" rx="27" ry="27.93"/>
<text text-anchor="middle" x="176.02" y="-621.51" font-family="Times,serif" font-size="26.00">4</text>
</g>
<!-- 1&#45;&#45;4 -->
<g id="edge3" class="edge">
<title>1&#45;&#45;4</title>
<path fill="none" stroke="black" d="M229.68,-364.78C218.39,-420.68 192.93,-546.72 181.62,-602.73"/>
</g>
<!-- 5 -->
<g id="node5" class="node">
<title>5</title>
<ellipse fill="none" stroke="black" cx="27" cy="-336.99" rx="27" ry="27.93"/>
<text text-anchor="middle" x="27" y="-328.04" font-family="Times,serif" font-size="26.00">5</text>
</g>
<!-- 1&#45;&#45;5 -->
<g id="edge4" class="edge">
<title>1&#45;&#45;5</title>
<path fill="none" stroke="black" d="M208.02,-337.17C168.11,-337.13 94.15,-337.06 54.23,-337.02"/>
</g>
<!-- 6 -->
<g id="node6" class="node">
<title>6</title>
<ellipse fill="none" stroke="black" cx="176.39" cy="-43.78" rx="27" ry="27.93"/>
<text text-anchor="middle" x="176.39" y="-34.83" font-family="Times,serif" font-size="26.00">6</text>
</g>
<!-- 1&#45;&#45;6 -->
<g id="edge5" class="edge">
<title>1&#45;&#45;6</title>
<path fill="none" stroke="black" d="M229.71,-309.59C218.49,-253.67 193.2,-127.56 181.96,-71.52"/>
</g>
<!-- 2&#45;&#45;3 -->
<g id="edge6" class="edge">
<title>2&#45;&#45;3</title>
<path fill="none" stroke="black" d="M428.17,-200.63C428.15,-263.1 428.09,-411.85 428.07,-473.94"/>
</g>
<!-- 7 -->
<g id="node7" class="node">
<title>7</title>
<ellipse fill="none" stroke="black" cx="647.23" cy="-337.44" rx="27" ry="27.93"/>
<text text-anchor="middle" x="647.23" y="-328.49" font-family="Times,serif" font-size="26.00">7</text>
</g>
<!-- 2&#45;&#45;7 -->
<g id="edge11" class="edge">
<title>2&#45;&#45;7</title>
<path fill="none" stroke="black" d="M450.39,-188.99C492.48,-220.73 583.41,-289.3 625.29,-320.89"/>
</g>
<!-- 3&#45;&#45;4 -->
<g id="edge7" class="edge">
<title>3&#45;&#45;4</title>
<path fill="none" stroke="black" d="M403.43,-514.47C355.13,-539.11 248.46,-593.51 200.38,-618.04"/>
</g>
<!-- 3&#45;&#45;7 -->
<g id="edge12" class="edge">
<title>3&#45;&#45;7</title>
<path fill="none" stroke="black" d="M450.28,-485.24C492.4,-453.63 583.37,-385.36 625.28,-353.91"/>
</g>
<!-- 4&#45;&#45;5 -->
<g id="edge8" class="edge">
<title>4&#45;&#45;5</title>
<path fill="none" stroke="black" d="M163.32,-605.44C135.16,-549.99 67.8,-417.34 39.67,-361.95"/>
</g>
<!-- 5&#45;&#45;6 -->
<g id="edge9" class="edge">
<title>5&#45;&#45;6</title>
<path fill="none" stroke="black" d="M39.74,-311.99C67.96,-256.6 135.49,-124.05 163.69,-68.71"/>
</g>
<!-- 6&#45;&#45;2 -->
<g id="edge10" class="edge">
<title>6&#45;&#45;2</title>
<path fill="none" stroke="black" d="M200.99,-56.33C249.25,-80.95 355.81,-135.31 403.85,-159.82"/>
</g>
</g>
</svg>
