<?xml version="1.0" encoding="UTF-8" standalone="no"?>
<!DOCTYPE svg PUBLIC "-//W3C//DTD SVG 1.1//EN"
 "http://www.w3.org/Graphics/SVG/1.1/DTD/svg11.dtd">
<!-- Generated by graphviz version 12.1.2 (0)
 -->
<!-- Pages: 1 -->
<svg width="479pt" height="479pt"
 viewBox="0.00 0.00 478.62 478.62" xmlns="http://www.w3.org/2000/svg" xmlns:xlink="http://www.w3.org/1999/xlink">
<g id="graph0" class="graph" transform="scale(1 1) rotate(0) translate(4 474.62)">
<polygon fill="white" stroke="none" points="-4,4 -4,-474.62 474.62,-474.62 474.62,4 -4,4"/>
<!-- 1 -->
<g id="node1" class="node">
<title>1</title>
<ellipse fill="tomato" stroke="black" cx="294.1" cy="-446" rx="27" ry="24.22"/>
<text text-anchor="middle" x="294.1" y="-438.23" font-family="Times,serif" font-size="22.00">1</text>
</g>
<!-- 2 -->
<g id="node2" class="node">
<title>2</title>
<ellipse fill="skyblue" stroke="black" cx="384.1" cy="-362" rx="27" ry="24.22"/>
<text text-anchor="middle" x="384.1" y="-354.23" font-family="Times,serif" font-size="22.00">2</text>
</g>
<!-- 1&#45;&#45;2 -->
<g id="edge1" class="edge">
<title>1&#45;&#45;2</title>
<path fill="none" stroke="black" d="M312.75,-428.01C328.19,-413.94 350.03,-394.04 365.47,-379.97"/>
</g>
<!-- 3 -->
<g id="node3" class="node">
<title>3</title>
<ellipse fill="none" stroke="mediumseagreen" stroke-width="2" cx="208.1" cy="-278" rx="27" ry="24.22"/>
<text text-anchor="middle" x="208.1" y="-270.23" font-family="Times,serif" font-size="22.00">3</text>
</g>
<!-- 1&#45;&#45;3 -->
<g id="edge2" class="edge">
<title>1&#45;&#45;3</title>
<path fill="none" stroke="black" d="M283.03,-423.64C266.56,-391.85 235.78,-332.43 219.26,-300.54"/>
</g>
<!-- 2&#45;&#45;3 -->
<g id="edge3" class="edge">
<title>2&#45;&#45;3</title>
<path fill="none" stroke="black" d="M360.36,-349.94C326.77,-334.29 265.71,-305.84 232.02,-290.15"/>
</g>
<!-- 5 -->
<g id="node4" class="node">
<title>5</title>
<ellipse fill="none" stroke="black" cx="262.1" cy="-109" rx="27" ry="24.22"/>
<text text-anchor="middle" x="262.1" y="-101.22" font-family="Times,serif" font-size="22.00">5</text>
</g>
<!-- 2&#45;&#45;5 -->
<g id="edge4" class="edge">
<title>2&#45;&#45;5</title>
<path fill="none" stroke="black" d="M373.7,-339.6C350.7,-292.3 295.77,-179.28 272.65,-131.7"/>
</g>
<!-- 3&#45;&#45;5 -->
<g id="edge6" class="edge">
<title>3&#45;&#45;5</title>
<path fill="none" stroke="black" d="M215.38,-254.48C225.69,-222.6 244.42,-164.67 254.76,-132.7"/>
</g>
<!-- 4 -->
<g id="node5" class="node">
<title>4</title>
<ellipse fill="none" stroke="black" cx="86.1" cy="-193" rx="27" ry="24.22"/>
<text text-anchor="middle" x="86.1" y="-185.22" font-family="Times,serif" font-size="22.00">4</text>
</g>
<!-- 3&#45;&#45;4 -->
<g id="edge5" class="edge">
<title>3&#45;&#45;4</title>
<path fill="none" stroke="black" d="M186.85,-262.54C164.45,-247.31 129.4,-223.46 107.1,-208.29"/>
</g>
<!-- 6 -->
<g id="node6" class="node">
<title>6</title>
<ellipse fill="none" stroke="black" cx="173.1" cy="-24" rx="27" ry="24.22"/>
<text text-anchor="middle" x="173.1" y="-16.23" font-family="Times,serif" font-size="22.00">6</text>
</g>
<!-- 5&#45;&#45;6 -->
<g id="edge9" class="edge">
<title>5&#45;&#45;6</title>
<path fill="none" stroke="black" d="M243.66,-90.8C228.38,-76.56 206.78,-56.41 191.51,-42.18"/>
</g>
<!-- 4&#45;&#45;5 -->
<g id="edge7" class="edge">
<title>4&#45;&#45;5</title>
<path fill="none" stroke="black" d="M109.83,-180.94C143.42,-165.29 204.48,-136.84 238.18,-121.15"/>
</g>
<!-- 4&#45;&#45;6 -->
<g id="edge8" class="edge">
<title>4&#45;&#45;6</title>
<path fill="none" stroke="black" d="M97.29,-170.51C114,-138.44 145.26,-78.43 161.95,-46.41"/>
</g>
</g>
</svg>
